<svg width="48" height="38" viewBox="0 0 48 38" fill="none" xmlns="http://www.w3.org/2000/svg">
<path d="M43.7344 12.939C43.7344 12.939 45.3575 10.8015 44.4185 10.5344C41.052 9.57676 13.1588 1.64159 9.7923 0.684115C8.85323 0.417032 9.10826 3.08871 9.10826 3.08871M43.7344 12.939L39.8871 11.8445M43.7344 12.939C43.7344 12.939 43.4182 14.0506 43.1446 15.0124C42.871 15.9742 40.9194 13.6977 40.3722 15.6214C39.8249 17.545 41.8854 17.6113 41.8854 17.6113C41.8854 17.6113 43.8091 18.1586 44.7709 18.4322C45.7328 18.7058 41.9684 30.1111 41.4875 29.9743C41.0066 29.8375 38.602 29.1534 37.1592 28.743C36.4821 28.5504 35.9677 29.2317 35.787 29.9121C35.5364 30.8557 36.8193 31.7653 37.3002 31.9021C37.7811 32.0389 38.3689 31.8001 38.2621 32.1757C38.1253 32.6567 37.7148 34.0994 37.7148 34.0994M37.7148 34.0994L8.85968 25.8909M37.7148 34.0994C37.7148 34.0994 37.3199 36.5863 37.0308 36.504C35.1071 35.9568 4.32829 27.201 2.40461 26.6537C1.92369 26.5169 3.08865 24.2492 3.08865 24.2492M3.08865 24.2492L6.936 25.3436M3.08865 24.2492C3.08865 24.2492 2.83364 21.5774 3.7727 21.8446C4.25362 21.9814 4.94513 22.1781 5.69638 22.3918C6.17729 22.5286 6.97144 21.9199 7.06864 21.2227C7.19521 20.3148 6.38042 19.9872 5.41858 19.7136C4.10391 19.3396 1.77853 19.7178 2.05215 18.7559C2.32577 17.7941 4.92514 8.65661 5.33557 7.21385C5.55462 6.44385 7.81725 7.39999 9.31973 7.82741C10.4918 8.16083 10.8993 7.75692 11.0361 7.276C11.4471 5.83138 9.45087 5.53906 9.45087 5.53906C9.45087 5.53906 8.78942 5.515 8.48903 5.26544C7.80923 4.70068 9.10826 3.08871 9.10826 3.08871M9.10826 3.08871L37.9634 11.2973M8.64403 17.5121C9.05448 16.0693 9.73853 13.6647 10.2857 11.7411C10.5917 10.6657 12.2271 11.0847 12.964 11.4632C14.0845 12.0388 13.5154 13.1796 13.5154 13.1796C13.5154 13.1796 12.5415 14.4621 13.105 14.6224C14.0668 14.896 14.5705 15.0394 15.5095 15.3065C16.4714 15.58 16.4237 14.0069 17.3627 14.2741C18.3246 14.5477 17.0742 15.7516 17.9141 15.9905C19.3569 16.4009 20.259 16.6577 21.7615 17.085C22.7233 17.3585 22.6529 15.779 24.0956 16.1894C25.5384 16.5998 24.5464 17.8773 25.6088 18.1795C27.0516 18.5898 27.9537 18.8466 29.4562 19.2739C30.4181 19.5475 30.0034 17.3503 30.9653 17.6239C31.9271 17.8974 30.5399 19.5823 31.3799 19.8212C32.8226 20.2315 33.7247 20.4883 35.2272 20.9156C36.1891 21.1892 36.2554 19.1287 36.2554 19.1287C36.2554 19.1287 36.529 18.1669 37.4909 18.4405C38.4527 18.7141 38.5294 19.121 38.66 19.8128C39.0746 22.0101 36.5373 25.447 36.5373 25.447C36.5373 25.447 35.646 26.753 34.6842 26.4794C33.7223 26.2058 33.8592 25.7248 34.1327 24.763C34.3465 24.0118 35.6418 23.1129 34.68 22.8393C33.3653 22.4654 32.7563 22.292 31.3136 21.8817C30.5167 21.655 30.2572 23.1407 29.4604 22.914C28.6636 22.6873 29.3899 21.3344 28.428 21.0608C27.1133 20.6869 26.5044 20.5135 25.0616 20.1031C23.9992 19.801 23.68 21.6626 22.5907 21.4796C21.3577 21.2724 22.1761 19.2822 20.7333 18.8719C19.4186 18.4979 18.8097 18.3246 17.3669 17.9142C16.527 17.6753 16.6829 20.3187 15.8578 19.5643C15.0427 18.8189 15.9241 17.5038 14.4814 17.0933C13.3545 16.7728 11.7327 15.7915 11.5959 16.2725C11.3822 17.0237 11.0486 18.1962 11.0486 18.1962C11.0486 18.1962 10.6382 19.6388 9.67636 19.3653C8.87953 19.1387 8.34972 18.5467 8.64403 17.5121Z" stroke="url(#paint0_linear_8_17)"/>
<circle cx="37.9634" cy="11.2972" r="0.5" transform="rotate(15.8797 37.9634 11.2972)" fill="#505050"/>
<circle cx="39.8871" cy="11.8444" r="0.5" transform="rotate(15.8797 39.8871 11.8444)" fill="#606060"/>
<circle cx="8.8597" cy="25.8908" r="0.5" transform="rotate(15.8797 8.8597 25.8908)" fill="#2E2E2E"/>
<circle cx="6.93603" cy="25.3436" r="0.5" transform="rotate(15.8797 6.93603 25.3436)" fill="#2A2A2A"/>
<defs>
<linearGradient id="paint0_linear_8_17" x1="3.34977" y1="12.3671" x2="44.2279" y2="23.9959" gradientUnits="userSpaceOnUse">
<stop/>
<stop offset="0.68" stop-color="#525252" stop-opacity="0.690526"/>
<stop offset="0.95" stop-color="white" stop-opacity="0.4"/>
</linearGradient>
</defs>
</svg>
